<svg width="30" height="30" viewBox="0 0 30 30" fill="none" xmlns="http://www.w3.org/2000/svg">
<path d="M23.5511 7H7.42542C5.81286 7 4.5 8.28751 4.5 9.86884V10.9084H26.5V9.86884C26.5 8.28746 25.1871 7 23.5746 7M4.5 19.1312C4.5 20.7125 5.8129 22 7.42542 22H23.5511C25.1636 22 26.4765 20.7125 26.4765 19.1312V12.3539H4.5V19.1312ZM8.46207 17.008C9.06139 17.008 9.56802 17.4827 9.56802 18.0925C9.56802 18.7023 9.08388 19.1771 8.46207 19.1771C7.84027 19.1771 7.35613 18.7023 7.35613 18.0925C7.35613 17.5048 7.84027 17.008 8.46207 17.008Z" fill="#8987A7"/>
<path d="M23.5511 7H7.42542C5.81286 7 4.5 8.28751 4.5 9.86884V10.9084H26.5V9.86884C26.5 8.28746 25.1871 7 23.5746 7M4.5 19.1312C4.5 20.7125 5.8129 22 7.42542 22H23.5511C25.1636 22 26.4765 20.7125 26.4765 19.1312V12.3539H4.5V19.1312ZM8.46207 17.008C9.06139 17.008 9.56802 17.4827 9.56802 18.0925C9.56802 18.7023 9.08388 19.1771 8.46207 19.1771C7.84027 19.1771 7.35613 18.7023 7.35613 18.0925C7.35613 17.5048 7.84027 17.008 8.46207 17.008Z" fill="url(#paint0_linear_440_1689)" fill-opacity="0.4"/>
<defs>
<linearGradient id="paint0_linear_440_1689" x1="15.5" y1="7" x2="15.5" y2="22" gradientUnits="userSpaceOnUse">
<stop stop-color="#8886A7"/>
<stop offset="1" stop-color="#58567D"/>
</linearGradient>
</defs>
</svg>
