<svg width="30" height="30" viewBox="0 0 30 30" fill="none" xmlns="http://www.w3.org/2000/svg">
<path fill-rule="evenodd" clip-rule="evenodd" d="M2.88428 8.12788C2.56422 8.28564 2.40316 8.60548 2.45088 8.98873C2.47735 9.2014 3.43446 11.0288 5.75626 15.2994C8.39696 20.1566 9.08618 21.1991 9.32401 21.5814C9.51535 21.7544 9.32401 21.9374 10.1252 21.9569C10.9265 21.9764 15.3321 21.9859 15.3321 21.9859L15.1366 13.3359C15.1366 13.3359 12.8061 8.92195 12.5655 8.60211C12.4636 8.46678 12.2312 7.99156 11.6301 8.0067C10.6802 8.0067 7.3782 8.00765 7.3782 8.00765C3.60028 8.00846 3.09937 8.02188 2.88428 8.12788Z" fill="#8987A7"/>
<path fill-rule="evenodd" clip-rule="evenodd" d="M2.88428 8.12788C2.56422 8.28564 2.40316 8.60548 2.45088 8.98873C2.47735 9.2014 3.43446 11.0288 5.75626 15.2994C8.39696 20.1566 9.08618 21.1991 9.32401 21.5814C9.51535 21.7544 9.32401 21.9374 10.1252 21.9569C10.9265 21.9764 15.3321 21.9859 15.3321 21.9859L15.1366 13.3359C15.1366 13.3359 12.8061 8.92195 12.5655 8.60211C12.4636 8.46678 12.2312 7.99156 11.6301 8.0067C10.6802 8.0067 7.3782 8.00765 7.3782 8.00765C3.60028 8.00846 3.09937 8.02188 2.88428 8.12788Z" fill="url(#paint0_linear_440_1683)" fill-opacity="0.4"/>
<path fill-rule="evenodd" clip-rule="evenodd" d="M18.2753 8.12111C18.1063 8.18093 17.8568 8.35306 17.7209 8.50349C17.585 8.65392 16.944 9.7487 16.2967 10.9363C15.6492 12.1239 14.6596 13.9368 14.0976 14.9649C13.5356 15.9931 12.5334 17.8373 11.8705 19.0631C11.2076 20.2891 10.5572 21.4022 10.4251 21.5368C10.2619 21.7031 10.0859 21.798 9.87533 21.8334L9.56567 21.8853L9.85891 21.9397C10.2711 22.0161 19.3562 22.0113 19.9531 21.9344C20.6208 21.8483 20.9349 21.6086 21.2485 21.0861C21.8016 20.1643 27.6882 9.17803 27.757 9.02192C27.9002 8.69756 27.5526 8.23051 27.3289 8.14919C27.0926 8.00507 26.9751 8.00133 22.8344 8.00675C19.2713 8.01137 18.5328 8.02984 18.2753 8.12111Z" fill="white"/>
<defs>
<linearGradient id="paint0_linear_440_1683" x1="15.0004" y1="8.00525" x2="15.0004" y2="21.9872" gradientUnits="userSpaceOnUse">
<stop stop-color="#8886A7"/>
<stop offset="1" stop-color="#58567D"/>
</linearGradient>
</defs>
</svg>
