<svg width="57" height="45" viewBox="0 0 57 45" fill="none" xmlns="http://www.w3.org/2000/svg">
<g opacity="0.32" filter="url(#filter0_f_628_3159)">
<path d="M32.5647 13.0553C30.3041 13.028 26.0457 12.9459 23.864 13.0553C21.5508 13.2469 18.9222 15.2995 17.3188 18.5288C15.2422 22.7434 15.6627 27.2864 18.2651 28.7095C20.7622 30.0505 22.7863 26.438 26.4926 24.2212C27.36 23.7012 29.6207 23.7012 30.4881 24.2212C34.1681 26.438 36.2185 30.0505 38.7156 28.7095C41.3442 27.3137 41.7648 22.7434 39.6619 18.5288C37.9271 15.0258 35.0093 13.0827 32.5647 13.0553ZM24.7314 20.4993H23.6537V21.6213C23.6537 22.196 23.2068 22.6613 22.6548 22.6613C22.1028 22.6613 21.656 22.196 21.656 21.6213V20.4993H20.5782C20.0262 20.4993 19.5794 20.034 19.5794 19.4593C19.5794 18.8846 20.0262 18.4193 20.5782 18.4193H21.656V17.2973C21.656 16.7226 22.1028 16.2573 22.6548 16.2573C23.2068 16.2573 23.6537 16.7226 23.6537 17.2973V18.4193H24.7314C25.2834 18.4193 25.7303 18.8846 25.7303 19.4593C25.7303 20.034 25.2834 20.4993 24.7314 20.4993ZM32.2493 20.4993C31.6973 20.4993 31.2504 20.034 31.2504 19.4593C31.2504 18.8846 31.6973 18.4193 32.2493 18.4193C32.8013 18.4193 33.2481 18.8846 33.2481 19.4593C33.2744 20.034 32.8276 20.4993 32.2493 20.4993ZM34.3521 22.6613C33.8001 22.6613 33.3533 22.196 33.3533 21.6213C33.3533 21.0466 33.8001 20.5814 34.3521 20.5814C34.9042 20.5814 35.351 21.0466 35.351 21.6213C35.351 22.196 34.9042 22.6613 34.3521 22.6613ZM34.3521 18.3099C33.8001 18.3099 33.3533 17.8446 33.3533 17.2699C33.3533 16.6952 33.8001 16.2299 34.3521 16.2299C34.9042 16.2299 35.351 16.6952 35.351 17.2699C35.351 17.8446 34.9042 18.3099 34.3521 18.3099ZM36.4287 20.4993C35.8767 20.4993 35.4299 20.034 35.4299 19.4593C35.4299 18.8846 35.8767 18.4193 36.4287 18.4193C36.9808 18.4193 37.4276 18.8846 37.4276 19.4593C37.4539 20.034 37.007 20.4993 36.4287 20.4993Z" fill="url(#paint0_linear_628_3159)"/>
</g>
<path d="M32.5647 13.0553C30.3041 13.028 26.0457 12.9459 23.864 13.0553C21.5508 13.2469 18.9222 15.2995 17.3188 18.5288C15.2422 22.7434 15.6627 27.2864 18.2651 28.7095C20.7622 30.0505 22.7863 26.438 26.4926 24.2212C27.36 23.7012 29.6207 23.7012 30.4881 24.2212C34.1681 26.438 36.2185 30.0505 38.7156 28.7095C41.3442 27.3137 41.7648 22.7434 39.6619 18.5288C37.9271 15.0258 35.0093 13.0827 32.5647 13.0553ZM24.7314 20.4993H23.6537V21.6213C23.6537 22.196 23.2068 22.6613 22.6548 22.6613C22.1028 22.6613 21.656 22.196 21.656 21.6213V20.4993H20.5782C20.0262 20.4993 19.5794 20.034 19.5794 19.4593C19.5794 18.8846 20.0262 18.4193 20.5782 18.4193H21.656V17.2973C21.656 16.7226 22.1028 16.2573 22.6548 16.2573C23.2068 16.2573 23.6537 16.7226 23.6537 17.2973V18.4193H24.7314C25.2834 18.4193 25.7303 18.8846 25.7303 19.4593C25.7303 20.034 25.2834 20.4993 24.7314 20.4993ZM32.2493 20.4993C31.6973 20.4993 31.2504 20.034 31.2504 19.4593C31.2504 18.8846 31.6973 18.4193 32.2493 18.4193C32.8013 18.4193 33.2481 18.8846 33.2481 19.4593C33.2744 20.034 32.8276 20.4993 32.2493 20.4993ZM34.3521 22.6613C33.8001 22.6613 33.3533 22.196 33.3533 21.6213C33.3533 21.0466 33.8001 20.5814 34.3521 20.5814C34.9042 20.5814 35.351 21.0466 35.351 21.6213C35.351 22.196 34.9042 22.6613 34.3521 22.6613ZM34.3521 18.3099C33.8001 18.3099 33.3533 17.8446 33.3533 17.2699C33.3533 16.6952 33.8001 16.2299 34.3521 16.2299C34.9042 16.2299 35.351 16.6952 35.351 17.2699C35.351 17.8446 34.9042 18.3099 34.3521 18.3099ZM36.4287 20.4993C35.8767 20.4993 35.4299 20.034 35.4299 19.4593C35.4299 18.8846 35.8767 18.4193 36.4287 18.4193C36.9808 18.4193 37.4276 18.8846 37.4276 19.4593C37.4539 20.034 37.007 20.4993 36.4287 20.4993Z" fill="url(#paint1_linear_628_3159)"/>
<defs>
<filter id="filter0_f_628_3159" x="0" y="-3" width="57" height="48" filterUnits="userSpaceOnUse" color-interpolation-filters="sRGB">
<feFlood flood-opacity="0" result="BackgroundImageFix"/>
<feBlend mode="normal" in="SourceGraphic" in2="BackgroundImageFix" result="shape"/>
<feGaussianBlur stdDeviation="8" result="effect1_foregroundBlur_628_3159"/>
</filter>
<linearGradient id="paint0_linear_628_3159" x1="29.125" y1="29" x2="29.125" y2="13" gradientUnits="userSpaceOnUse">
<stop stop-color="#7456E9"/>
<stop offset="1" stop-color="#CFAEFE"/>
</linearGradient>
<linearGradient id="paint1_linear_628_3159" x1="29.125" y1="29" x2="29.125" y2="13" gradientUnits="userSpaceOnUse">
<stop stop-color="#7456E9"/>
<stop offset="1" stop-color="#CFAEFE"/>
</linearGradient>
</defs>
</svg>
