<svg width="25" height="20" viewBox="0 0 25 20" fill="none" xmlns="http://www.w3.org/2000/svg">
<path d="M16.5647 2.05532C14.3041 2.02796 10.0457 1.94585 7.864 2.05532C5.55082 2.2469 2.92221 4.29945 1.31876 7.52881C-0.757841 11.7434 -0.337263 16.2864 2.26506 17.7095C4.76224 19.0505 6.78627 15.438 10.4926 13.2212C11.36 12.7012 13.6207 12.7012 14.4881 13.2212C18.1681 15.438 20.2185 19.0505 22.7156 17.7095C25.3442 16.3137 25.7648 11.7434 23.6619 7.52881C21.9271 4.02578 19.0093 2.08269 16.5647 2.05532ZM8.73144 9.49926H7.65371V10.6213C7.65371 11.196 7.20684 11.6613 6.65484 11.6613C6.10283 11.6613 5.65596 11.196 5.65596 10.6213V9.49926H4.57824C4.02623 9.49926 3.57936 9.03401 3.57936 8.4593C3.57936 7.88458 4.02623 7.41934 4.57824 7.41934H5.65596V6.29727C5.65596 5.72256 6.10283 5.25731 6.65484 5.25731C7.20684 5.25731 7.65371 5.72256 7.65371 6.29727V7.41934H8.73144C9.28345 7.41934 9.73031 7.88458 9.73031 8.4593C9.73031 9.03401 9.28345 9.49926 8.73144 9.49926ZM16.2493 9.49926C15.6973 9.49926 15.2504 9.03401 15.2504 8.4593C15.2504 7.88458 15.6973 7.41934 16.2493 7.41934C16.8013 7.41934 17.2481 7.88458 17.2481 8.4593C17.2744 9.03401 16.8276 9.49926 16.2493 9.49926ZM18.3521 11.6613C17.8001 11.6613 17.3533 11.196 17.3533 10.6213C17.3533 10.0466 17.8001 9.58136 18.3521 9.58136C18.9042 9.58136 19.351 10.0466 19.351 10.6213C19.351 11.196 18.9042 11.6613 18.3521 11.6613ZM18.3521 7.30987C17.8001 7.30987 17.3533 6.84462 17.3533 6.26991C17.3533 5.69519 17.8001 5.22994 18.3521 5.22994C18.9042 5.22994 19.351 5.69519 19.351 6.26991C19.351 6.84462 18.9042 7.30987 18.3521 7.30987ZM20.4287 9.49926C19.8767 9.49926 19.4299 9.03401 19.4299 8.4593C19.4299 7.88458 19.8767 7.41934 20.4287 7.41934C20.9808 7.41934 21.4276 7.88458 21.4276 8.4593C21.4539 9.03401 21.007 9.49926 20.4287 9.49926Z" fill="white"/>
</svg>
