<svg width="16" height="15" viewBox="0 0 16 15" fill="none" xmlns="http://www.w3.org/2000/svg">
<path fill-rule="evenodd" clip-rule="evenodd" d="M7.57311 12.7054L3.97245 14.8675C3.59804 15.0922 3.10859 14.977 2.87924 14.61C2.76721 14.4308 2.73382 14.2148 2.78662 14.0111L3.344 11.8608C3.5452 11.0845 4.08714 10.4357 4.82375 10.089L8.7519 8.24044C8.93503 8.15427 9.01222 7.93889 8.9243 7.7594C8.85309 7.61402 8.69206 7.53268 8.52995 7.56019L4.15742 8.30216C3.26858 8.45299 2.3571 8.21241 1.66571 7.64452L0.284388 6.5099C-0.0521366 6.23348 -0.0963237 5.74199 0.185694 5.41215C0.322858 5.25172 0.520101 5.15212 0.733 5.1358L4.95334 4.81206C5.2515 4.78919 5.51134 4.60425 5.6258 4.33344L7.25393 0.48121C7.42197 0.0836159 7.88703 -0.105176 8.29268 0.0595314C8.48744 0.138617 8.6422 0.290299 8.72289 0.48121L10.351 4.33344C10.4655 4.60425 10.7253 4.78919 11.0235 4.81206L15.2671 5.13758C15.7048 5.17115 16.0318 5.54618 15.9975 5.97523C15.9811 6.18163 15.8814 6.37311 15.7207 6.50742L12.4844 9.21176C12.2565 9.40214 12.1572 9.70182 12.2272 9.98712L13.2222 14.0384C13.3249 14.4568 13.0622 14.8776 12.6354 14.9783C12.4302 15.0268 12.2139 14.9932 12.034 14.8852L8.4037 12.7054C8.14885 12.5524 7.82796 12.5524 7.57311 12.7054Z" fill="white" fill-opacity="0.24"/>
</svg>
