<svg width="14" height="18" viewBox="0 0 14 18" fill="none" xmlns="http://www.w3.org/2000/svg">
<path d="M5.68343 11.725C5.68343 11.1417 5.77902 10.625 5.97021 10.175C6.17877 9.725 6.43079 9.325 6.72626 8.975C7.03911 8.625 7.36934 8.3 7.71695 8C8.06456 7.7 8.3861 7.41667 8.68156 7.15C8.99441 6.86667 9.24643 6.575 9.43762 6.275C9.64618 5.975 9.75047 5.64167 9.75047 5.275C9.75047 4.675 9.48976 4.19167 8.96834 3.825C8.46431 3.45833 7.78647 3.275 6.93482 3.275C6.11794 3.275 5.38796 3.44167 4.74488 3.775C4.1018 4.09167 3.57169 4.54167 3.15456 5.125L0 3.35C0.69522 2.33333 1.65984 1.525 2.89385 0.925C4.12787 0.308333 5.62259 0 7.37803 0C8.68156 0 9.82868 0.183333 10.8194 0.549999C11.8101 0.899999 12.5835 1.41667 13.1397 2.1C13.7132 2.78333 14 3.625 14 4.625C14 5.275 13.8957 5.85 13.6872 6.35C13.4786 6.85 13.2092 7.28333 12.879 7.65C12.5487 8.01667 12.1924 8.35833 11.8101 8.675C11.4451 8.99167 11.0975 9.3 10.7672 9.6C10.437 9.9 10.1589 10.2167 9.93296 10.55C9.72439 10.8833 9.62011 11.275 9.62011 11.725H5.68343ZM7.6648 18C6.93482 18 6.3352 17.775 5.86592 17.325C5.39665 16.875 5.16201 16.3417 5.16201 15.725C5.16201 15.0917 5.39665 14.5667 5.86592 14.15C6.3352 13.7167 6.93482 13.5 7.6648 13.5C8.41217 13.5 9.01179 13.7167 9.46369 14.15C9.93296 14.5667 10.1676 15.0917 10.1676 15.725C10.1676 16.3417 9.93296 16.875 9.46369 17.325C9.01179 17.775 8.41217 18 7.6648 18Z" fill="white"/>
</svg>
