<svg width="49" height="50" viewBox="0 0 49 50" fill="none" xmlns="http://www.w3.org/2000/svg">
<g opacity="0.32" filter="url(#filter0_f_0_4)">
<path d="M17.7216 23.8193L19.8258 24.7023C19.5885 25.3084 19.3993 25.9327 19.2598 26.5693L19.18 26.9364L22.1966 29.9912L22.5594 29.9122C23.1884 29.7711 23.8052 29.5796 24.4042 29.3395L25.2767 31.469C25.2853 31.4901 25.2989 31.5087 25.3163 31.5232C25.3337 31.5377 25.3544 31.5475 25.3765 31.5519C25.3987 31.5563 25.4215 31.555 25.443 31.5482C25.4646 31.5414 25.4841 31.5294 25.4998 31.5131L26.8186 30.1784C27.0338 29.9607 27.2015 29.6996 27.3109 29.4122C27.4202 29.1248 27.4688 28.8173 27.4535 28.5097L27.4063 27.6524C29.8479 25.8276 32.3185 22.6278 32.9915 17.0433C33.0106 16.9033 32.9975 16.7607 32.9531 16.6267C32.9088 16.4927 32.8345 16.3708 32.7361 16.2706C32.6376 16.1704 32.5175 16.0945 32.3853 16.049C32.2531 16.0034 32.1123 15.9894 31.9739 16.008C26.4576 16.6945 23.2941 19.1967 21.491 21.6604L20.6457 21.6163C20.3424 21.5996 20.039 21.6473 19.755 21.7564C19.471 21.8655 19.2128 22.0335 18.9968 22.2497L17.6781 23.5843C17.6598 23.6 17.6459 23.6203 17.6379 23.6432C17.6299 23.6661 17.628 23.6907 17.6325 23.7145C17.6369 23.7384 17.6474 23.7606 17.6631 23.779C17.6788 23.7974 17.6989 23.8113 17.7216 23.8193ZM26.1819 20.5662C26.4104 20.3357 26.7013 20.1789 27.0179 20.1157C27.3344 20.0524 27.6624 20.0854 27.9603 20.2107C28.2583 20.3359 28.513 20.5476 28.6921 20.8192C28.8712 21.0908 28.9668 21.41 28.9668 21.7365C28.9668 22.0631 28.8712 22.3823 28.6921 22.6539C28.513 22.9255 28.2583 23.1372 27.9603 23.2624C27.6624 23.3877 27.3344 23.4207 27.0179 23.3574C26.7013 23.2941 26.4104 23.1374 26.1819 22.9069C26.0297 22.7534 25.9089 22.571 25.8265 22.3701C25.7441 22.1693 25.7017 21.954 25.7017 21.7365C25.7017 21.5191 25.7441 21.3038 25.8265 21.1029C25.9089 20.9021 26.0297 20.7197 26.1819 20.5662ZM17.328 30.2353C16.9788 30.1113 16.6038 30.081 16.2396 30.1472C16.2072 30.1543 16.1736 30.153 16.1419 30.1433C16.1101 30.1337 16.0814 30.1161 16.0582 30.0922C16.0295 30.0632 16.0102 30.026 16.0031 29.9856C15.996 29.9452 16.0013 29.9036 16.0183 29.8664C16.4047 29.0256 17.4295 27.3348 19.2852 28.7006C19.2949 28.7094 19.3027 28.7202 19.308 28.7322C19.3133 28.7442 19.316 28.7572 19.316 28.7704C19.316 28.7836 19.3133 28.7966 19.308 28.8086C19.3027 28.8206 19.2949 28.8314 19.2852 28.8401C19.0368 29.0382 18.8379 29.2925 18.7046 29.5828C18.5713 29.873 18.5073 30.1909 18.5179 30.5107C18.5193 30.5483 18.5346 30.5839 18.5609 30.6105C18.5871 30.637 18.6223 30.6525 18.6594 30.6539C18.9741 30.6667 19.2874 30.6046 19.5741 30.4726C19.8608 30.3406 20.1129 30.1424 20.3101 29.8939C20.3188 29.8831 20.3297 29.8745 20.3421 29.8685C20.3545 29.8626 20.368 29.8595 20.3818 29.8595C20.3955 29.8595 20.409 29.8626 20.4214 29.8685C20.4338 29.8745 20.4447 29.8831 20.4534 29.8939C20.711 30.2041 21.4202 31.2175 20.6348 32.196C20.2919 32.6131 19.8006 32.8768 19.2671 32.9303C18.5052 33.0129 17.0976 33.2644 16.5226 33.929C16.4995 33.9566 16.4694 33.9775 16.4355 33.9892C16.4017 34.0009 16.3653 34.0032 16.3303 33.9956C16.2953 33.9881 16.263 33.9711 16.2368 33.9464C16.2106 33.9217 16.1915 33.8903 16.1815 33.8555C15.9784 33.1543 15.6627 31.5865 17.328 30.2353Z" fill="url(#paint0_linear_0_4)"/>
</g>
<path d="M17.7216 23.8193L19.8258 24.7023C19.5885 25.3084 19.3993 25.9327 19.2598 26.5693L19.18 26.9364L22.1966 29.9912L22.5594 29.9122C23.1884 29.7711 23.8052 29.5796 24.4042 29.3395L25.2767 31.469C25.2853 31.4901 25.2989 31.5087 25.3163 31.5232C25.3337 31.5377 25.3544 31.5475 25.3765 31.5519C25.3987 31.5563 25.4215 31.555 25.443 31.5482C25.4646 31.5414 25.4841 31.5294 25.4998 31.5131L26.8186 30.1784C27.0338 29.9607 27.2015 29.6996 27.3109 29.4122C27.4202 29.1248 27.4688 28.8173 27.4535 28.5097L27.4063 27.6524C29.8479 25.8276 32.3185 22.6278 32.9915 17.0433C33.0106 16.9033 32.9975 16.7607 32.9531 16.6267C32.9088 16.4927 32.8345 16.3708 32.7361 16.2706C32.6376 16.1704 32.5175 16.0945 32.3853 16.049C32.2531 16.0034 32.1123 15.9894 31.9739 16.008C26.4576 16.6945 23.2941 19.1967 21.491 21.6604L20.6457 21.6163C20.3424 21.5996 20.039 21.6473 19.755 21.7564C19.471 21.8655 19.2128 22.0335 18.9968 22.2497L17.6781 23.5843C17.6598 23.6 17.6459 23.6203 17.6379 23.6432C17.6299 23.6661 17.628 23.6907 17.6325 23.7145C17.6369 23.7384 17.6474 23.7606 17.6631 23.779C17.6788 23.7974 17.6989 23.8113 17.7216 23.8193ZM26.1819 20.5662C26.4104 20.3357 26.7013 20.1789 27.0179 20.1157C27.3344 20.0524 27.6624 20.0854 27.9603 20.2107C28.2583 20.3359 28.513 20.5476 28.6921 20.8192C28.8712 21.0908 28.9668 21.41 28.9668 21.7365C28.9668 22.0631 28.8712 22.3823 28.6921 22.6539C28.513 22.9255 28.2583 23.1372 27.9603 23.2624C27.6624 23.3877 27.3344 23.4207 27.0179 23.3574C26.7013 23.2941 26.4104 23.1374 26.1819 22.9069C26.0297 22.7534 25.9089 22.571 25.8265 22.3701C25.7441 22.1693 25.7017 21.954 25.7017 21.7365C25.7017 21.5191 25.7441 21.3038 25.8265 21.1029C25.9089 20.9021 26.0297 20.7197 26.1819 20.5662ZM17.328 30.2353C16.9788 30.1113 16.6038 30.081 16.2396 30.1472C16.2072 30.1543 16.1736 30.153 16.1419 30.1433C16.1101 30.1337 16.0814 30.1161 16.0582 30.0922C16.0295 30.0632 16.0102 30.026 16.0031 29.9856C15.996 29.9452 16.0013 29.9036 16.0183 29.8664C16.4047 29.0256 17.4295 27.3348 19.2852 28.7006C19.2949 28.7094 19.3027 28.7202 19.308 28.7322C19.3133 28.7442 19.316 28.7572 19.316 28.7704C19.316 28.7836 19.3133 28.7966 19.308 28.8086C19.3027 28.8206 19.2949 28.8314 19.2852 28.8401C19.0368 29.0382 18.8379 29.2925 18.7046 29.5828C18.5713 29.873 18.5073 30.1909 18.5179 30.5107C18.5193 30.5483 18.5346 30.5839 18.5609 30.6105C18.5871 30.637 18.6223 30.6525 18.6594 30.6539C18.9741 30.6667 19.2874 30.6046 19.5741 30.4726C19.8608 30.3406 20.1129 30.1424 20.3101 29.8939C20.3188 29.8831 20.3297 29.8745 20.3421 29.8685C20.3545 29.8626 20.368 29.8595 20.3818 29.8595C20.3955 29.8595 20.409 29.8626 20.4214 29.8685C20.4338 29.8745 20.4447 29.8831 20.4534 29.8939C20.711 30.2041 21.4202 31.2175 20.6348 32.196C20.2919 32.6131 19.8006 32.8768 19.2671 32.9303C18.5052 33.0129 17.0976 33.2644 16.5226 33.929C16.4995 33.9566 16.4694 33.9775 16.4355 33.9892C16.4017 34.0009 16.3653 34.0032 16.3303 33.9956C16.2953 33.9881 16.263 33.9711 16.2368 33.9464C16.2106 33.9217 16.1915 33.8903 16.1815 33.8555C15.9784 33.1543 15.6627 31.5865 17.328 30.2353Z" fill="url(#paint1_linear_0_4)"/>
<defs>
<filter id="filter0_f_0_4" x="0" y="0" width="49" height="50" filterUnits="userSpaceOnUse" color-interpolation-filters="sRGB">
<feFlood flood-opacity="0" result="BackgroundImageFix"/>
<feBlend mode="normal" in="SourceGraphic" in2="BackgroundImageFix" result="shape"/>
<feGaussianBlur stdDeviation="8" result="effect1_foregroundBlur_0_4"/>
</filter>
<linearGradient id="paint0_linear_0_4" x1="24.925" y1="34" x2="24.925" y2="16" gradientUnits="userSpaceOnUse">
<stop stop-color="#7456E9"/>
<stop offset="1" stop-color="#CFAEFE"/>
</linearGradient>
<linearGradient id="paint1_linear_0_4" x1="24.925" y1="34" x2="24.925" y2="16" gradientUnits="userSpaceOnUse">
<stop stop-color="#7456E9"/>
<stop offset="1" stop-color="#CFAEFE"/>
</linearGradient>
</defs>
</svg>
