<svg width="19" height="20" viewBox="0 0 19 20" fill="none" xmlns="http://www.w3.org/2000/svg">
<path d="M2.72159 8.81925L4.82578 9.70227C4.58853 10.3084 4.39928 10.9327 4.25982 11.5693L4.18001 11.9364L7.19662 14.9912L7.55941 14.9122C8.18837 14.7711 8.80525 14.5796 9.40421 14.3395L10.2767 16.469C10.2853 16.4901 10.2989 16.5087 10.3163 16.5232C10.3337 16.5377 10.3544 16.5475 10.3765 16.5519C10.3987 16.5563 10.4215 16.555 10.443 16.5482C10.4646 16.5414 10.4841 16.5294 10.4998 16.5131L11.8186 15.1784C12.0338 14.9607 12.2015 14.6996 12.3109 14.4122C12.4202 14.1248 12.4688 13.8173 12.4535 13.5097L12.4063 12.6524C14.8479 10.8276 17.3185 7.62782 17.9915 2.04334C18.0106 1.90333 17.9975 1.76074 17.9531 1.6267C17.9088 1.49266 17.8345 1.37079 17.7361 1.27058C17.6376 1.17037 17.5175 1.09453 17.3853 1.04898C17.2531 1.00343 17.1123 0.989387 16.9739 1.00796C11.4576 1.69454 8.29407 4.19673 6.49099 6.66036L5.64569 6.6163C5.34239 6.5996 5.039 6.64732 4.75502 6.7564C4.47105 6.86548 4.21277 7.0335 3.9968 7.24965L2.67805 8.58427C2.65978 8.59999 2.64594 8.62032 2.63793 8.6432C2.62992 8.66608 2.62803 8.69069 2.63245 8.71455C2.63687 8.7384 2.64745 8.76065 2.6631 8.77904C2.67875 8.79743 2.69893 8.8113 2.72159 8.81925ZM11.1819 5.56623C11.4104 5.33574 11.7013 5.17895 12.0179 5.11566C12.3344 5.05238 12.6624 5.08543 12.9603 5.21065C13.2583 5.33587 13.513 5.54764 13.6921 5.81922C13.8712 6.0908 13.9668 6.41001 13.9668 6.73655C13.9668 7.06308 13.8712 7.38229 13.6921 7.65387C13.513 7.92545 13.2583 8.13722 12.9603 8.26244C12.6624 8.38766 12.3344 8.42072 12.0179 8.35743C11.7013 8.29415 11.4104 8.13736 11.1819 7.90686C11.0297 7.75337 10.9089 7.57098 10.8265 7.37015C10.7441 7.16932 10.7017 6.954 10.7017 6.73655C10.7017 6.51909 10.7441 6.30378 10.8265 6.10295C10.9089 5.90212 11.0297 5.71973 11.1819 5.56623ZM2.32796 15.2353C1.97878 15.1113 1.60381 15.081 1.23958 15.1472C1.20721 15.1543 1.17359 15.153 1.14187 15.1433C1.11015 15.1337 1.08136 15.1161 1.05819 15.0922C1.02946 15.0632 1.01023 15.026 1.00309 14.9856C0.995951 14.9452 1.00125 14.9036 1.01828 14.8664C1.40465 14.0256 2.42954 12.3348 4.28522 13.7006C4.29491 13.7094 4.30267 13.7202 4.30798 13.7322C4.31329 13.7442 4.31603 13.7572 4.31603 13.7704C4.31603 13.7836 4.31329 13.7966 4.30798 13.8086C4.30267 13.8206 4.29491 13.8314 4.28522 13.8401C4.03678 14.0382 3.83787 14.2925 3.70458 14.5828C3.57128 14.873 3.50733 15.1909 3.51791 15.5107C3.51926 15.5483 3.5346 15.5839 3.56085 15.6105C3.5871 15.637 3.62231 15.6525 3.6594 15.6539C3.97411 15.6667 4.2874 15.6046 4.57409 15.4726C4.86078 15.3406 5.11287 15.1424 5.3101 14.8939C5.31878 14.8831 5.32971 14.8745 5.3421 14.8685C5.3545 14.8626 5.36804 14.8595 5.38176 14.8595C5.39547 14.8595 5.40902 14.8626 5.42141 14.8685C5.4338 14.8745 5.44473 14.8831 5.45341 14.8939C5.71099 15.2041 6.42025 16.2175 5.6348 17.196C5.29191 17.6131 4.8006 17.8768 4.26708 17.9303C3.50522 18.0129 2.09758 18.2644 1.52256 18.929C1.49948 18.9566 1.4694 18.9775 1.43555 18.9892C1.40169 19.0009 1.36532 19.0032 1.33032 18.9956C1.29531 18.9881 1.26298 18.9711 1.23678 18.9464C1.21058 18.9217 1.19149 18.8903 1.18154 18.8555C0.978372 18.1543 0.662744 16.5865 2.32796 15.2353Z" fill="white"/>
</svg>
