<svg width="9" height="10" viewBox="0 0 9 10" fill="none" xmlns="http://www.w3.org/2000/svg">
<path fill-rule="evenodd" clip-rule="evenodd" d="M7.72061 5.07349V6.54409C7.72061 7.14094 7.72003 7.53846 7.69648 7.84406C7.6735 8.14105 7.63272 8.2772 7.59193 8.36395C7.46095 8.63739 7.24037 8.85798 6.96693 8.98895C6.88018 9.02974 6.74404 9.07052 6.44704 9.0935C6.14144 9.11706 5.74392 9.11763 5.14706 9.11763C4.55021 9.11763 4.15269 9.11705 3.84709 9.0935C3.5501 9.07052 3.41395 9.02974 3.3272 8.98895C3.05894 8.86085 2.84122 8.64601 2.70967 8.37946C2.92911 8.38234 3.17556 8.38234 3.45588 8.38234C4.62202 8.38234 5.20515 8.38234 5.65545 8.1675C6.11157 7.94978 6.47922 7.58213 6.69692 7.12602C6.91176 6.67565 6.91176 6.09259 6.91176 4.92645V3.45586C6.91176 3.12956 6.91176 2.84866 6.90717 2.60394C6.92957 2.61198 6.9491 2.6206 6.96691 2.62864C7.24035 2.75962 7.46094 2.9802 7.59191 3.25365C7.6327 3.34039 7.67349 3.47653 7.69646 3.77353C7.72002 4.07914 7.72061 4.47664 7.72061 5.07349ZM6.8325 1.68083C6.80148 1.52171 6.75782 1.38384 6.69693 1.25631C6.47921 0.800195 6.11156 0.432546 5.65545 0.214839C5.20508 -8.76543e-08 4.62202 0 3.45588 0C2.28975 0 1.70661 -8.76543e-08 1.25631 0.214839C0.800195 0.432561 0.432546 0.800209 0.214839 1.25631C-8.76543e-08 1.70668 0 2.28975 0 3.45588V4.92648C0 6.09262 -8.76543e-08 6.67575 0.214839 7.12605C0.432561 7.58217 0.800209 7.94981 1.25631 8.16752C1.40682 8.23933 1.57283 8.28758 1.77045 8.31917C1.80147 8.47829 1.84513 8.61616 1.90602 8.74369C2.12374 9.19981 2.49139 9.56746 2.9475 9.78516C3.39787 10 3.98093 10 5.14706 10C6.3132 10 6.89634 10 7.34663 9.78516C7.80275 9.56744 8.1704 9.19979 8.38811 8.74369C8.60295 8.29332 8.60295 7.71025 8.60295 6.54412V5.07352C8.60295 3.90738 8.60295 3.32425 8.38811 2.87395C8.17039 2.41783 7.80274 2.05019 7.34663 1.83248C7.19613 1.76067 7.03012 1.71242 6.8325 1.68083ZM6.02942 4.92643V3.45584C6.02942 2.85898 6.02885 2.46147 6.0053 2.15586C5.98232 1.85888 5.94153 1.72273 5.90074 1.63598C5.76977 1.36254 5.54918 1.14195 5.27574 1.01098C5.189 0.97019 5.05286 0.929403 4.75586 0.906425C4.45025 0.882872 4.05274 0.882298 3.45588 0.882298C2.85902 0.882298 2.46151 0.882873 2.1559 0.906425C1.85892 0.929403 1.72277 0.970188 1.63602 1.01098C1.36258 1.14195 1.14199 1.36254 1.01102 1.63598C0.970231 1.72272 0.929444 1.85886 0.906466 2.15586C0.882913 2.46147 0.882339 2.85898 0.882339 3.45584V4.92643C0.882339 5.52329 0.882914 5.92081 0.906466 6.22641C0.929444 6.5234 0.970229 6.65954 1.01102 6.74629C1.14199 7.01974 1.36258 7.24033 1.63602 7.3713C1.72276 7.41208 1.8589 7.45287 2.1559 7.47585C2.46151 7.4994 2.85902 7.49997 3.45588 7.49997C4.05274 7.49997 4.45025 7.4994 4.75586 7.47585C5.05284 7.45287 5.18899 7.41208 5.27574 7.3713C5.54918 7.24032 5.76977 7.01974 5.90074 6.74629C5.94153 6.65955 5.98232 6.52341 6.0053 6.22641C6.02885 5.92081 6.02942 5.52329 6.02942 4.92643Z" fill="white" fill-opacity="0.16"/>
<path fill-rule="evenodd" clip-rule="evenodd" d="M7.72061 5.07349V6.54409C7.72061 7.14094 7.72003 7.53846 7.69648 7.84406C7.6735 8.14105 7.63272 8.2772 7.59193 8.36395C7.46095 8.63739 7.24037 8.85798 6.96693 8.98895C6.88018 9.02974 6.74404 9.07052 6.44704 9.0935C6.14144 9.11706 5.74392 9.11763 5.14706 9.11763C4.55021 9.11763 4.15269 9.11705 3.84709 9.0935C3.5501 9.07052 3.41395 9.02974 3.3272 8.98895C3.05894 8.86085 2.84122 8.64601 2.70967 8.37946C2.92911 8.38234 3.17556 8.38234 3.45588 8.38234C4.62202 8.38234 5.20515 8.38234 5.65545 8.1675C6.11157 7.94978 6.47922 7.58213 6.69692 7.12602C6.91176 6.67565 6.91176 6.09259 6.91176 4.92645V3.45586C6.91176 3.12956 6.91176 2.84866 6.90717 2.60394C6.92957 2.61198 6.9491 2.6206 6.96691 2.62864C7.24035 2.75962 7.46094 2.9802 7.59191 3.25365C7.6327 3.34039 7.67349 3.47653 7.69646 3.77353C7.72002 4.07914 7.72061 4.47664 7.72061 5.07349ZM6.8325 1.68083C6.80148 1.52171 6.75782 1.38384 6.69693 1.25631C6.47921 0.800195 6.11156 0.432546 5.65545 0.214839C5.20508 -8.76543e-08 4.62202 0 3.45588 0C2.28975 0 1.70661 -8.76543e-08 1.25631 0.214839C0.800195 0.432561 0.432546 0.800209 0.214839 1.25631C-8.76543e-08 1.70668 0 2.28975 0 3.45588V4.92648C0 6.09262 -8.76543e-08 6.67575 0.214839 7.12605C0.432561 7.58217 0.800209 7.94981 1.25631 8.16752C1.40682 8.23933 1.57283 8.28758 1.77045 8.31917C1.80147 8.47829 1.84513 8.61616 1.90602 8.74369C2.12374 9.19981 2.49139 9.56746 2.9475 9.78516C3.39787 10 3.98093 10 5.14706 10C6.3132 10 6.89634 10 7.34663 9.78516C7.80275 9.56744 8.1704 9.19979 8.38811 8.74369C8.60295 8.29332 8.60295 7.71025 8.60295 6.54412V5.07352C8.60295 3.90738 8.60295 3.32425 8.38811 2.87395C8.17039 2.41783 7.80274 2.05019 7.34663 1.83248C7.19613 1.76067 7.03012 1.71242 6.8325 1.68083ZM6.02942 4.92643V3.45584C6.02942 2.85898 6.02885 2.46147 6.0053 2.15586C5.98232 1.85888 5.94153 1.72273 5.90074 1.63598C5.76977 1.36254 5.54918 1.14195 5.27574 1.01098C5.189 0.97019 5.05286 0.929403 4.75586 0.906425C4.45025 0.882872 4.05274 0.882298 3.45588 0.882298C2.85902 0.882298 2.46151 0.882873 2.1559 0.906425C1.85892 0.929403 1.72277 0.970188 1.63602 1.01098C1.36258 1.14195 1.14199 1.36254 1.01102 1.63598C0.970231 1.72272 0.929444 1.85886 0.906466 2.15586C0.882913 2.46147 0.882339 2.85898 0.882339 3.45584V4.92643C0.882339 5.52329 0.882914 5.92081 0.906466 6.22641C0.929444 6.5234 0.970229 6.65954 1.01102 6.74629C1.14199 7.01974 1.36258 7.24033 1.63602 7.3713C1.72276 7.41208 1.8589 7.45287 2.1559 7.47585C2.46151 7.4994 2.85902 7.49997 3.45588 7.49997C4.05274 7.49997 4.45025 7.4994 4.75586 7.47585C5.05284 7.45287 5.18899 7.41208 5.27574 7.3713C5.54918 7.24032 5.76977 7.01974 5.90074 6.74629C5.94153 6.65955 5.98232 6.52341 6.0053 6.22641C6.02885 5.92081 6.02942 5.52329 6.02942 4.92643Z" fill="url(#paint0_linear_397_1435)" fill-opacity="0.2"/>
<path fill-rule="evenodd" clip-rule="evenodd" d="M7.72061 5.07349V6.54409C7.72061 7.14094 7.72003 7.53846 7.69648 7.84406C7.6735 8.14105 7.63272 8.2772 7.59193 8.36395C7.46095 8.63739 7.24037 8.85798 6.96693 8.98895C6.88018 9.02974 6.74404 9.07052 6.44704 9.0935C6.14144 9.11706 5.74392 9.11763 5.14706 9.11763C4.55021 9.11763 4.15269 9.11705 3.84709 9.0935C3.5501 9.07052 3.41395 9.02974 3.3272 8.98895C3.05894 8.86085 2.84122 8.64601 2.70967 8.37946C2.92911 8.38234 3.17556 8.38234 3.45588 8.38234C4.62202 8.38234 5.20515 8.38234 5.65545 8.1675C6.11157 7.94978 6.47922 7.58213 6.69692 7.12602C6.91176 6.67565 6.91176 6.09259 6.91176 4.92645V3.45586C6.91176 3.12956 6.91176 2.84866 6.90717 2.60394C6.92957 2.61198 6.9491 2.6206 6.96691 2.62864C7.24035 2.75962 7.46094 2.9802 7.59191 3.25365C7.6327 3.34039 7.67349 3.47653 7.69646 3.77353C7.72002 4.07914 7.72061 4.47664 7.72061 5.07349ZM6.8325 1.68083C6.80148 1.52171 6.75782 1.38384 6.69693 1.25631C6.47921 0.800195 6.11156 0.432546 5.65545 0.214839C5.20508 -8.76543e-08 4.62202 0 3.45588 0C2.28975 0 1.70661 -8.76543e-08 1.25631 0.214839C0.800195 0.432561 0.432546 0.800209 0.214839 1.25631C-8.76543e-08 1.70668 0 2.28975 0 3.45588V4.92648C0 6.09262 -8.76543e-08 6.67575 0.214839 7.12605C0.432561 7.58217 0.800209 7.94981 1.25631 8.16752C1.40682 8.23933 1.57283 8.28758 1.77045 8.31917C1.80147 8.47829 1.84513 8.61616 1.90602 8.74369C2.12374 9.19981 2.49139 9.56746 2.9475 9.78516C3.39787 10 3.98093 10 5.14706 10C6.3132 10 6.89634 10 7.34663 9.78516C7.80275 9.56744 8.1704 9.19979 8.38811 8.74369C8.60295 8.29332 8.60295 7.71025 8.60295 6.54412V5.07352C8.60295 3.90738 8.60295 3.32425 8.38811 2.87395C8.17039 2.41783 7.80274 2.05019 7.34663 1.83248C7.19613 1.76067 7.03012 1.71242 6.8325 1.68083ZM6.02942 4.92643V3.45584C6.02942 2.85898 6.02885 2.46147 6.0053 2.15586C5.98232 1.85888 5.94153 1.72273 5.90074 1.63598C5.76977 1.36254 5.54918 1.14195 5.27574 1.01098C5.189 0.97019 5.05286 0.929403 4.75586 0.906425C4.45025 0.882872 4.05274 0.882298 3.45588 0.882298C2.85902 0.882298 2.46151 0.882873 2.1559 0.906425C1.85892 0.929403 1.72277 0.970188 1.63602 1.01098C1.36258 1.14195 1.14199 1.36254 1.01102 1.63598C0.970231 1.72272 0.929444 1.85886 0.906466 2.15586C0.882913 2.46147 0.882339 2.85898 0.882339 3.45584V4.92643C0.882339 5.52329 0.882914 5.92081 0.906466 6.22641C0.929444 6.5234 0.970229 6.65954 1.01102 6.74629C1.14199 7.01974 1.36258 7.24033 1.63602 7.3713C1.72276 7.41208 1.8589 7.45287 2.1559 7.47585C2.46151 7.4994 2.85902 7.49997 3.45588 7.49997C4.05274 7.49997 4.45025 7.4994 4.75586 7.47585C5.05284 7.45287 5.18899 7.41208 5.27574 7.3713C5.54918 7.24032 5.76977 7.01974 5.90074 6.74629C5.94153 6.65955 5.98232 6.52341 6.0053 6.22641C6.02885 5.92081 6.02942 5.52329 6.02942 4.92643Z" fill="white" fill-opacity="0.32"/>
<defs>
<linearGradient id="paint0_linear_397_1435" x1="4.30147" y1="0" x2="4.30147" y2="10" gradientUnits="userSpaceOnUse">
<stop stop-color="#9D8AF3"/>
<stop offset="1" stop-color="#7351FF"/>
</linearGradient>
</defs>
</svg>
