<svg width="21" height="56" viewBox="0 0 21 56" fill="none" xmlns="http://www.w3.org/2000/svg">
<path d="M0.116693 1.66396L6.92295 0.028462L7.23603 1.33137L3.30047 6.52462L3.1486 5.89261L8.04911 4.71506L8.42293 6.27077L1.61668 7.90627L1.30593 6.61308L5.23916 1.41011L5.39103 2.04212L0.49052 3.21967L0.116693 1.66396ZM3.00843 14.2118C2.87915 13.6738 2.84672 13.1536 2.91115 12.6513C2.97713 12.1555 3.12844 11.7009 3.36507 11.2875C3.60326 10.8806 3.91368 10.5318 4.29633 10.241C4.68054 9.95668 5.12544 9.75378 5.63105 9.63228C6.13666 9.51079 6.62518 9.48939 7.09662 9.56809C7.56961 9.65327 8.00542 9.82623 8.40404 10.087C8.80266 10.3477 9.144 10.684 9.42805 11.0956C9.7121 11.5073 9.91799 11.979 10.0457 12.5105C10.175 13.0485 10.2059 13.5622 10.1383 14.0515C10.0723 14.5473 9.92025 14.9987 9.68206 15.4056C9.44543 15.819 9.13579 16.1711 8.75314 16.4619C8.37697 16.7511 7.93284 16.9572 7.42075 17.0803C6.91514 17.2018 6.4226 17.2207 5.94313 17.1371C5.47013 17.0519 5.03433 16.8789 4.63571 16.6182C4.24512 16.3624 3.90781 16.0286 3.62376 15.6169C3.34126 15.2117 3.13615 14.7433 3.00843 14.2118ZM4.3479 13.8796C4.42111 14.1843 4.53994 14.4506 4.7044 14.6785C4.87042 14.9128 5.07403 15.1039 5.31522 15.2516C5.55641 15.3993 5.82236 15.4931 6.11305 15.533C6.40529 15.5793 6.71347 15.5635 7.03758 15.4857C7.36169 15.4078 7.64338 15.2818 7.88267 15.1078C8.12352 14.9402 8.31781 14.7358 8.46555 14.4946C8.61484 14.2599 8.71019 14.0004 8.7516 13.7162C8.79301 13.432 8.77711 13.1376 8.7039 12.8329C8.6307 12.5283 8.51108 12.2587 8.34506 12.0244C8.1806 11.7965 7.97778 11.6087 7.73658 11.461C7.49539 11.3132 7.22867 11.2162 6.93642 11.1699C6.64573 11.13 6.33833 11.149 6.01423 11.2269C5.6966 11.3032 5.41412 11.4259 5.16679 11.5951C4.92751 11.7691 4.73321 11.9735 4.58392 12.2082C4.43618 12.4494 4.34161 12.7121 4.3002 12.9963C4.25879 13.2805 4.27469 13.575 4.3479 13.8796ZM5.61796 24.558L12.4242 22.9225L12.8027 24.4976L7.27993 25.8247L8.10001 29.2376L6.81655 29.546L5.61796 24.558ZM8.00545 35.0073C7.87617 34.4693 7.84374 33.9492 7.90817 33.4469C7.97416 32.9511 8.12546 32.4965 8.36209 32.0831C8.60028 31.6762 8.9107 31.3273 9.29335 31.0365C9.67756 30.7522 10.1225 30.5493 10.6281 30.4278C11.1337 30.3063 11.6222 30.2849 12.0936 30.3636C12.5666 30.4488 13.0024 30.6218 13.4011 30.8825C13.7997 31.1433 14.141 31.4795 14.4251 31.8912C14.7091 32.3029 14.915 32.7745 15.0427 33.306C15.172 33.8441 15.2029 34.3577 15.1353 34.8471C15.0694 35.3429 14.9173 35.7942 14.6791 36.2011C14.4425 36.6145 14.1328 36.9666 13.7502 37.2574C13.374 37.5466 12.9299 37.7528 12.4178 37.8758C11.9122 37.9973 11.4196 38.0163 10.9401 37.9326C10.4672 37.8475 10.0313 37.6745 9.63273 37.4137C9.24215 37.1579 8.90483 36.8242 8.62078 36.4125C8.33829 36.0072 8.13318 35.5389 8.00545 35.0073ZM9.34492 34.6752C9.41813 34.9799 9.53696 35.2461 9.70142 35.474C9.86744 35.7084 10.071 35.8994 10.3122 36.0472C10.5534 36.1949 10.8194 36.2887 11.1101 36.3285C11.4023 36.3749 11.7105 36.3591 12.0346 36.2812C12.3587 36.2033 12.6404 36.0774 12.8797 35.9033C13.1205 35.7357 13.3148 35.5313 13.4626 35.2902C13.6119 35.0554 13.7072 34.796 13.7486 34.5118C13.79 34.2276 13.7741 33.9331 13.7009 33.6285C13.6277 33.3238 13.5081 33.0543 13.3421 32.8199C13.1776 32.5921 12.9748 32.4042 12.7336 32.2565C12.4924 32.1088 12.2257 32.0117 11.9334 31.9654C11.6428 31.9255 11.3354 31.9446 11.0112 32.0224C10.6936 32.0988 10.4111 32.2215 10.1638 32.3906C9.92453 32.5647 9.73024 32.7691 9.58094 33.0038C9.43321 33.245 9.33863 33.5077 9.29722 33.7919C9.25581 34.0761 9.27171 34.3705 9.34492 34.6752ZM10.3039 44.5726C10.1746 44.0345 10.1422 43.5144 10.2066 43.0121C10.2726 42.5163 10.4239 42.0617 10.6605 41.6483C10.8987 41.2414 11.2092 40.8925 11.5918 40.6018C11.976 40.3175 12.4209 40.1146 12.9265 39.9931C13.4321 39.8716 13.9207 39.8502 14.3921 39.9289C14.8651 40.014 15.3009 40.187 15.6995 40.4478C16.0981 40.7085 16.4395 41.0447 16.7235 41.4564C17.0076 41.8681 17.2135 42.3397 17.3412 42.8713C17.4705 43.4093 17.5013 43.923 17.4338 44.4123C17.3678 44.9081 17.2157 45.3594 16.9775 45.7664C16.7409 46.1798 16.4313 46.5318 16.0486 46.8226C15.6724 47.1119 15.2283 47.318 14.7162 47.4411C14.2106 47.5625 13.7181 47.5815 13.2386 47.4979C12.7656 47.4127 12.3298 47.2397 11.9312 46.979C11.5406 46.7231 11.2033 46.3894 10.9192 45.9777C10.6367 45.5725 10.4316 45.1041 10.3039 44.5726ZM11.6434 44.2404C11.7166 44.5451 11.8354 44.8113 11.9999 45.0392C12.1659 45.2736 12.3695 45.4646 12.6107 45.6124C12.8519 45.7601 13.1178 45.8539 13.4085 45.8938C13.7008 45.9401 14.0089 45.9243 14.3331 45.8464C14.6572 45.7686 14.9389 45.6426 15.1781 45.4685C15.419 45.301 15.6133 45.0966 15.761 44.8554C15.9103 44.6207 16.0057 44.3612 16.0471 44.077C16.0885 43.7928 16.0726 43.4984 15.9994 43.1937C15.9262 42.889 15.8066 42.6195 15.6405 42.3852C15.4761 42.1573 15.2733 41.9695 15.0321 41.8217C14.7909 41.674 14.5241 41.577 14.2319 41.5306C13.9412 41.4908 13.6338 41.5098 13.3097 41.5877C12.9921 41.664 12.7096 41.7867 12.4623 41.9559C12.223 42.1299 12.0287 42.3343 11.8794 42.569C11.7317 42.8102 11.6371 43.0729 11.5957 43.3571C11.5543 43.6413 11.5702 43.9358 11.6434 44.2404ZM12.2406 52.1188L17.7634 50.7917L17.2401 48.6137L18.5235 48.3053L19.9487 54.2364L18.6653 54.5448L18.1419 52.3668L12.6191 53.6939L12.2406 52.1188Z" fill="white"/>
</svg>
