<svg width="20" height="18" viewBox="0 0 20 18" fill="none" xmlns="http://www.w3.org/2000/svg">
<path fill-rule="evenodd" clip-rule="evenodd" d="M9.46639 15.2465L4.96556 17.841C4.49755 18.1107 3.88574 17.9724 3.59905 17.532C3.45902 17.3169 3.41728 17.0578 3.48327 16.8133L4.18 14.2329C4.4315 13.3014 5.10893 12.5228 6.02969 12.1068L10.9399 9.88853C11.1688 9.78512 11.2653 9.52667 11.1554 9.31127C11.0664 9.13683 10.8651 9.03921 10.6624 9.07223L5.19677 9.96259C4.08573 10.1436 2.94637 9.85489 2.08213 9.17343L0.355486 7.81188C-0.0651708 7.48017 -0.120405 6.89039 0.232118 6.49459C0.403572 6.30206 0.650126 6.18255 0.916249 6.16296L6.19168 5.77448C6.56437 5.74703 6.88917 5.5251 7.03225 5.20013L9.06742 0.577452C9.27746 0.100339 9.85879 -0.126211 10.3658 0.0714376C10.6093 0.16634 10.8027 0.348358 10.9036 0.577452L12.9388 5.20013C13.0818 5.5251 13.4066 5.74703 13.7793 5.77448L19.0838 6.16509C19.631 6.20538 20.0397 6.65542 19.9969 7.17028C19.9764 7.41795 19.8518 7.64774 19.6509 7.80891L15.6055 11.0541C15.3206 11.2826 15.1965 11.6422 15.284 11.9845L16.5277 16.846C16.6562 17.3482 16.3277 17.8531 15.7942 17.974C15.5377 18.0321 15.2673 17.9919 15.0424 17.8622L10.5046 15.2465C10.1861 15.0629 9.78495 15.0629 9.46639 15.2465Z" fill="url(#paint0_linear_535_11013)"/>
<path fill-rule="evenodd" clip-rule="evenodd" d="M9.46639 15.2465L4.96556 17.841C4.49755 18.1107 3.88574 17.9724 3.59905 17.532C3.45902 17.3169 3.41728 17.0578 3.48327 16.8133L4.18 14.2329C4.4315 13.3014 5.10893 12.5228 6.02969 12.1068L10.9399 9.88853C11.1688 9.78512 11.2653 9.52667 11.1554 9.31127C11.0664 9.13683 10.8651 9.03921 10.6624 9.07223L5.19677 9.96259C4.08573 10.1436 2.94637 9.85489 2.08213 9.17343L0.355486 7.81188C-0.0651708 7.48017 -0.120405 6.89039 0.232118 6.49459C0.403572 6.30206 0.650126 6.18255 0.916249 6.16296L6.19168 5.77448C6.56437 5.74703 6.88917 5.5251 7.03225 5.20013L9.06742 0.577452C9.27746 0.100339 9.85879 -0.126211 10.3658 0.0714376C10.6093 0.16634 10.8027 0.348358 10.9036 0.577452L12.9388 5.20013C13.0818 5.5251 13.4066 5.74703 13.7793 5.77448L19.0838 6.16509C19.631 6.20538 20.0397 6.65542 19.9969 7.17028C19.9764 7.41795 19.8518 7.64774 19.6509 7.80891L15.6055 11.0541C15.3206 11.2826 15.1965 11.6422 15.284 11.9845L16.5277 16.846C16.6562 17.3482 16.3277 17.8531 15.7942 17.974C15.5377 18.0321 15.2673 17.9919 15.0424 17.8622L10.5046 15.2465C10.1861 15.0629 9.78495 15.0629 9.46639 15.2465Z" fill="white" fill-opacity="0.16"/>
<defs>
<linearGradient id="paint0_linear_535_11013" x1="20" y1="6.3841e-07" x2="0.335627" y2="18.3595" gradientUnits="userSpaceOnUse">
<stop stop-color="#FAD02E"/>
<stop offset="1" stop-color="#E17A01"/>
</linearGradient>
</defs>
</svg>
