<svg width="44" height="44" viewBox="0 0 44 44" fill="none" xmlns="http://www.w3.org/2000/svg">
<circle cx="22" cy="22" r="22" fill="#A187F4"/>
<path d="M14.9241 20.6881L15.2722 20.8333C16.3853 21.2976 16.9029 22.5659 16.6433 23.7436C16.5877 23.998 16.6649 24.2631 16.8484 24.4479L19.6333 27.2514C19.8154 27.4348 20.0785 27.5127 20.3311 27.4581C21.4994 27.1974 22.7599 27.712 23.216 28.8188L23.3681 29.1878C23.3777 29.2112 23.3929 29.2319 23.4123 29.248C23.4318 29.2641 23.4549 29.275 23.4797 29.2799C23.5044 29.2847 23.5299 29.2833 23.554 29.2758C23.578 29.2683 23.5999 29.2548 23.6175 29.2367L25.0914 27.7538C25.3319 27.5118 25.5193 27.2218 25.6415 26.9024C25.7638 26.5831 25.8181 26.2415 25.8009 25.8997C25.768 25.3049 26.041 24.7395 26.4944 24.3532C28.9642 22.2488 31.307 18.7981 31.9905 13.1593C32.0118 13.0037 31.9972 12.8453 31.9476 12.6963C31.8981 12.5474 31.8151 12.412 31.705 12.3006C31.5949 12.1893 31.4608 12.105 31.313 12.0544C31.1653 12.0038 31.0079 11.9882 30.8531 12.0088C25.2459 12.7027 21.8137 15.0652 19.7223 17.5466C19.3417 17.9982 18.782 18.2709 18.1922 18.2403C17.8533 18.2218 17.5142 18.2748 17.1968 18.396C16.8794 18.5172 16.5907 18.7039 16.3494 18.9441L14.8755 20.427C14.855 20.4444 14.8396 20.467 14.8306 20.4924C14.8217 20.5179 14.8196 20.5452 14.8245 20.5717C14.8294 20.5982 14.8413 20.6229 14.8588 20.6434C14.8763 20.6638 14.8988 20.6792 14.9241 20.6881ZM24.3798 17.0736C24.6352 16.8175 24.9603 16.6433 25.3141 16.573C25.6679 16.5026 26.0344 16.5394 26.3674 16.6785C26.7005 16.8176 26.9851 17.0529 27.1853 17.3547C27.3855 17.6564 27.4924 18.0111 27.4924 18.3739C27.4924 18.7368 27.3855 19.0914 27.1853 19.3932C26.9851 19.6949 26.7005 19.9302 26.3674 20.0694C26.0344 20.2085 25.6679 20.2452 25.3141 20.1749C24.9603 20.1046 24.6352 19.9304 24.3798 19.6743C24.2097 19.5037 24.0747 19.3011 23.9826 19.0779C23.8905 18.8548 23.8431 18.6156 23.8431 18.3739C23.8431 18.1323 23.8905 17.8931 23.9826 17.6699C24.0747 17.4468 24.2097 17.2441 24.3798 17.0736ZM13.6349 28.7077C13.9454 28.2669 13.7984 27.6232 13.2678 27.7191C13.2316 27.727 13.194 27.7255 13.1586 27.7148C13.1231 27.7041 13.0909 27.6846 13.065 27.658C13.0329 27.6258 13.0114 27.5845 13.0035 27.5396C12.9955 27.4947 13.0014 27.4484 13.0204 27.4071C13.4523 26.4728 14.5977 24.5942 16.6717 26.1118C16.6825 26.1216 16.6912 26.1335 16.6971 26.1469C16.7031 26.1602 16.7062 26.1747 16.7062 26.1893C16.7062 26.2039 16.7031 26.2184 16.6971 26.2318C16.6912 26.2451 16.6825 26.2571 16.6717 26.2668C16.394 26.4868 16.1717 26.7695 16.0228 27.092C15.8738 27.4144 15.8023 27.7676 15.8141 28.123C15.8156 28.1647 15.8328 28.2043 15.8621 28.2338C15.8915 28.2633 15.9308 28.2806 15.9723 28.2821C16.324 28.2963 16.6742 28.2274 16.9946 28.0807C17.315 27.934 17.5967 27.7138 17.8172 27.4377C17.8269 27.4257 17.8391 27.4161 17.8529 27.4095C17.8668 27.4029 17.8819 27.3994 17.8973 27.3994C17.9126 27.3994 17.9277 27.4029 17.9416 27.4095C17.9554 27.4161 17.9676 27.4257 17.9773 27.4377C18.2652 27.7824 19.0579 28.9083 18.1801 29.9955C17.7968 30.459 17.2477 30.7521 16.6514 30.8114C15.7999 30.9032 14.2267 31.1827 13.584 31.9211C13.5582 31.9518 13.5246 31.975 13.4868 31.988C13.4489 32.001 13.4083 32.0035 13.3692 31.9951C13.3301 31.9868 13.2939 31.9679 13.2646 31.9404C13.2354 31.913 13.214 31.8781 13.2029 31.8395C13.0198 31.2112 12.755 29.957 13.6349 28.7077Z" fill="#2F3293"/>
<path d="M14.9241 20.6881L15.2722 20.8333C16.3853 21.2976 16.9029 22.5659 16.6433 23.7436C16.5877 23.998 16.6649 24.2631 16.8484 24.4479L19.6333 27.2514C19.8154 27.4348 20.0785 27.5127 20.3311 27.4581C21.4994 27.1974 22.7599 27.712 23.216 28.8188L23.3681 29.1878C23.3777 29.2112 23.3929 29.2319 23.4123 29.248C23.4318 29.2641 23.4549 29.275 23.4797 29.2799C23.5044 29.2847 23.5299 29.2833 23.554 29.2758C23.578 29.2683 23.5999 29.2548 23.6175 29.2367L25.0914 27.7538C25.3319 27.5118 25.5193 27.2218 25.6415 26.9024C25.7638 26.5831 25.8181 26.2415 25.8009 25.8997C25.768 25.3049 26.041 24.7395 26.4944 24.3532C28.9642 22.2488 31.307 18.7981 31.9905 13.1593C32.0118 13.0037 31.9972 12.8453 31.9476 12.6963C31.8981 12.5474 31.8151 12.412 31.705 12.3006C31.5949 12.1893 31.4608 12.105 31.313 12.0544C31.1653 12.0038 31.0079 11.9882 30.8531 12.0088C25.2459 12.7027 21.8137 15.0652 19.7223 17.5466C19.3417 17.9982 18.782 18.2709 18.1922 18.2403C17.8533 18.2218 17.5142 18.2748 17.1968 18.396C16.8794 18.5172 16.5907 18.7039 16.3494 18.9441L14.8755 20.427C14.855 20.4444 14.8396 20.467 14.8306 20.4924C14.8217 20.5179 14.8196 20.5452 14.8245 20.5717C14.8294 20.5982 14.8413 20.6229 14.8588 20.6434C14.8763 20.6638 14.8988 20.6792 14.9241 20.6881ZM24.3798 17.0736C24.6352 16.8175 24.9603 16.6433 25.3141 16.573C25.6679 16.5026 26.0344 16.5394 26.3674 16.6785C26.7005 16.8176 26.9851 17.0529 27.1853 17.3547C27.3855 17.6564 27.4924 18.0111 27.4924 18.3739C27.4924 18.7368 27.3855 19.0914 27.1853 19.3932C26.9851 19.6949 26.7005 19.9302 26.3674 20.0694C26.0344 20.2085 25.6679 20.2452 25.3141 20.1749C24.9603 20.1046 24.6352 19.9304 24.3798 19.6743C24.2097 19.5037 24.0747 19.3011 23.9826 19.0779C23.8905 18.8548 23.8431 18.6156 23.8431 18.3739C23.8431 18.1323 23.8905 17.8931 23.9826 17.6699C24.0747 17.4468 24.2097 17.2441 24.3798 17.0736ZM13.6349 28.7077C13.9454 28.2669 13.7984 27.6232 13.2678 27.7191C13.2316 27.727 13.194 27.7255 13.1586 27.7148C13.1231 27.7041 13.0909 27.6846 13.065 27.658C13.0329 27.6258 13.0114 27.5845 13.0035 27.5396C12.9955 27.4947 13.0014 27.4484 13.0204 27.4071C13.4523 26.4728 14.5977 24.5942 16.6717 26.1118C16.6825 26.1216 16.6912 26.1335 16.6971 26.1469C16.7031 26.1602 16.7062 26.1747 16.7062 26.1893C16.7062 26.2039 16.7031 26.2184 16.6971 26.2318C16.6912 26.2451 16.6825 26.2571 16.6717 26.2668C16.394 26.4868 16.1717 26.7695 16.0228 27.092C15.8738 27.4144 15.8023 27.7676 15.8141 28.123C15.8156 28.1647 15.8328 28.2043 15.8621 28.2338C15.8915 28.2633 15.9308 28.2806 15.9723 28.2821C16.324 28.2963 16.6742 28.2274 16.9946 28.0807C17.315 27.934 17.5967 27.7138 17.8172 27.4377C17.8269 27.4257 17.8391 27.4161 17.8529 27.4095C17.8668 27.4029 17.8819 27.3994 17.8973 27.3994C17.9126 27.3994 17.9277 27.4029 17.9416 27.4095C17.9554 27.4161 17.9676 27.4257 17.9773 27.4377C18.2652 27.7824 19.0579 28.9083 18.1801 29.9955C17.7968 30.459 17.2477 30.7521 16.6514 30.8114C15.7999 30.9032 14.2267 31.1827 13.584 31.9211C13.5582 31.9518 13.5246 31.975 13.4868 31.988C13.4489 32.001 13.4083 32.0035 13.3692 31.9951C13.3301 31.9868 13.2939 31.9679 13.2646 31.9404C13.2354 31.913 13.214 31.8781 13.2029 31.8395C13.0198 31.2112 12.755 29.957 13.6349 28.7077Z" fill="url(#paint0_linear_0_18)"/>
<path d="M14.9241 20.6881L15.2722 20.8333C16.3853 21.2976 16.9029 22.5659 16.6433 23.7436C16.5877 23.998 16.6649 24.2631 16.8484 24.4479L19.6333 27.2514C19.8154 27.4348 20.0785 27.5127 20.3311 27.4581C21.4994 27.1974 22.7599 27.712 23.216 28.8188L23.3681 29.1878C23.3777 29.2112 23.3929 29.2319 23.4123 29.248C23.4318 29.2641 23.4549 29.275 23.4797 29.2799C23.5044 29.2847 23.5299 29.2833 23.554 29.2758C23.578 29.2683 23.5999 29.2548 23.6175 29.2367L25.0914 27.7538C25.3319 27.5118 25.5193 27.2218 25.6415 26.9024C25.7638 26.5831 25.8181 26.2415 25.8009 25.8997C25.768 25.3049 26.041 24.7395 26.4944 24.3532C28.9642 22.2488 31.307 18.7981 31.9905 13.1593C32.0118 13.0037 31.9972 12.8453 31.9476 12.6963C31.8981 12.5474 31.8151 12.412 31.705 12.3006C31.5949 12.1893 31.4608 12.105 31.313 12.0544C31.1653 12.0038 31.0079 11.9882 30.8531 12.0088C25.2459 12.7027 21.8137 15.0652 19.7223 17.5466C19.3417 17.9982 18.782 18.2709 18.1922 18.2403C17.8533 18.2218 17.5142 18.2748 17.1968 18.396C16.8794 18.5172 16.5907 18.7039 16.3494 18.9441L14.8755 20.427C14.855 20.4444 14.8396 20.467 14.8306 20.4924C14.8217 20.5179 14.8196 20.5452 14.8245 20.5717C14.8294 20.5982 14.8413 20.6229 14.8588 20.6434C14.8763 20.6638 14.8988 20.6792 14.9241 20.6881ZM24.3798 17.0736C24.6352 16.8175 24.9603 16.6433 25.3141 16.573C25.6679 16.5026 26.0344 16.5394 26.3674 16.6785C26.7005 16.8176 26.9851 17.0529 27.1853 17.3547C27.3855 17.6564 27.4924 18.0111 27.4924 18.3739C27.4924 18.7368 27.3855 19.0914 27.1853 19.3932C26.9851 19.6949 26.7005 19.9302 26.3674 20.0694C26.0344 20.2085 25.6679 20.2452 25.3141 20.1749C24.9603 20.1046 24.6352 19.9304 24.3798 19.6743C24.2097 19.5037 24.0747 19.3011 23.9826 19.0779C23.8905 18.8548 23.8431 18.6156 23.8431 18.3739C23.8431 18.1323 23.8905 17.8931 23.9826 17.6699C24.0747 17.4468 24.2097 17.2441 24.3798 17.0736ZM13.6349 28.7077C13.9454 28.2669 13.7984 27.6232 13.2678 27.7191C13.2316 27.727 13.194 27.7255 13.1586 27.7148C13.1231 27.7041 13.0909 27.6846 13.065 27.658C13.0329 27.6258 13.0114 27.5845 13.0035 27.5396C12.9955 27.4947 13.0014 27.4484 13.0204 27.4071C13.4523 26.4728 14.5977 24.5942 16.6717 26.1118C16.6825 26.1216 16.6912 26.1335 16.6971 26.1469C16.7031 26.1602 16.7062 26.1747 16.7062 26.1893C16.7062 26.2039 16.7031 26.2184 16.6971 26.2318C16.6912 26.2451 16.6825 26.2571 16.6717 26.2668C16.394 26.4868 16.1717 26.7695 16.0228 27.092C15.8738 27.4144 15.8023 27.7676 15.8141 28.123C15.8156 28.1647 15.8328 28.2043 15.8621 28.2338C15.8915 28.2633 15.9308 28.2806 15.9723 28.2821C16.324 28.2963 16.6742 28.2274 16.9946 28.0807C17.315 27.934 17.5967 27.7138 17.8172 27.4377C17.8269 27.4257 17.8391 27.4161 17.8529 27.4095C17.8668 27.4029 17.8819 27.3994 17.8973 27.3994C17.9126 27.3994 17.9277 27.4029 17.9416 27.4095C17.9554 27.4161 17.9676 27.4257 17.9773 27.4377C18.2652 27.7824 19.0579 28.9083 18.1801 29.9955C17.7968 30.459 17.2477 30.7521 16.6514 30.8114C15.7999 30.9032 14.2267 31.1827 13.584 31.9211C13.5582 31.9518 13.5246 31.975 13.4868 31.988C13.4489 32.001 13.4083 32.0035 13.3692 31.9951C13.3301 31.9868 13.2939 31.9679 13.2646 31.9404C13.2354 31.913 13.214 31.8781 13.2029 31.8395C13.0198 31.2112 12.755 29.957 13.6349 28.7077Z" fill="white" fill-opacity="0.6"/>
<defs>
<linearGradient id="paint0_linear_0_18" x1="13" y1="32" x2="32.435" y2="31.5679" gradientUnits="userSpaceOnUse">
<stop stop-color="#7456E9"/>
<stop offset="0.32894" stop-color="#8EB3EF"/>
<stop offset="0.681173" stop-color="#E6DDF7" stop-opacity="0.99"/>
<stop offset="1" stop-color="#CFAEFE"/>
</linearGradient>
</defs>
</svg>
